HIERARCHY
ROOT Hips
{
	OFFSET 0.0000 0.0000 0.0000
	CHANNELS 6 Xposition Yposition Zposition Zrotation Xrotation Yrotation
	JOINT Spine1
	{
		OFFSET -0.0137 5.0038 -0.0537
		CHANNELS 3 Zrotation Xrotation Yrotation
		JOINT Spine2
		{
			OFFSET -0.0000 7.1253 -0.0298
			CHANNELS 3 Zrotation Xrotation Yrotation
			JOINT Chest
			{
				OFFSET -0.0000 7.5501 -0.8160
				CHANNELS 3 Zrotation Xrotation Yrotation
				JOINT Neck1
				{
					OFFSET -0.1817 26.3113 -0.5533
					CHANNELS 3 Zrotation Xrotation Yrotation
					JOINT Neck2
					{
						OFFSET -0.0000 7.7094 2.3026
						CHANNELS 3 Zrotation Xrotation Yrotation
						JOINT Head
						{
							OFFSET -0.0000 6.1289 1.9537
							CHANNELS 3 Zrotation Xrotation Yrotation
							JOINT Jaw
							{
								OFFSET 0.0026 0.4756 3.0949
								CHANNELS 3 Zrotation Xrotation Yrotation
								End Site
								{
									OFFSET 0.0 1.0 0.0
								}
							}
							JOINT LeftEye
							{
								OFFSET 3.2064 5.3802 7.5869
								CHANNELS 3 Zrotation Xrotation Yrotation
								End Site
								{
									OFFSET 0.0 1.0 0.0
								}
							}
							JOINT RightEye
							{
								OFFSET -3.2224 5.3619 7.5582
								CHANNELS 3 Zrotation Xrotation Yrotation
								End Site
								{
									OFFSET 0.0 1.0 0.0
								}
							}
						}
					}
				}
				JOINT LeftShoulder
				{
					OFFSET 1.6217 23.2372 5.1134
					CHANNELS 3 Zrotation Xrotation Yrotation
					JOINT LeftArm
					{
						OFFSET 14.9198 0.0000 -5.5023
						CHANNELS 3 Zrotation Xrotation Yrotation
						JOINT LeftForeArm
						{
							OFFSET 28.7393 0.0000 -0.0026
							CHANNELS 3 Zrotation Xrotation Yrotation
							JOINT LeftHand
							{
								OFFSET 27.0940 -0.0000 0.0026
								CHANNELS 3 Zrotation Xrotation Yrotation
								JOINT LeftHandThumbEnd
								{
									OFFSET 12.2686 -3.2202 4.8331
									CHANNELS 3 Zrotation Xrotation Yrotation
									End Site
									{
										OFFSET 0.0 1.0 0.0
									}
								}
								JOINT LeftHandMiddleEnd
								{
									OFFSET 19.0120 -0.3129 -0.0340
									CHANNELS 3 Zrotation Xrotation Yrotation
									End Site
									{
										OFFSET 0.0 1.0 0.0
									}
								}
							}
						}
					}
				}
				JOINT RightShoulder
				{
					OFFSET -1.3801 23.1803 5.2142
					CHANNELS 3 Zrotation Xrotation Yrotation
					JOINT RightArm
					{
						OFFSET -15.0372 0.0000 -5.5456
						CHANNELS 3 Zrotation Xrotation Yrotation
						JOINT RightForeArm
						{
							OFFSET -28.7366 0.0000 -0.0026
							CHANNELS 3 Zrotation Xrotation Yrotation
							JOINT RightHand
							{
								OFFSET -27.1336 -0.0000 0.0026
								CHANNELS 3 Zrotation Xrotation Yrotation
								JOINT RightHandThumbEnd
								{
									OFFSET -12.2642 -3.2115 4.8040
									CHANNELS 3 Zrotation Xrotation Yrotation
									End Site
									{
										OFFSET 0.0 1.0 0.0
									}
								}
								JOINT RightHandMiddleEnd
								{
									OFFSET -19.0006 -0.3066 -0.0316
									CHANNELS 3 Zrotation Xrotation Yrotation
									End Site
									{
										OFFSET 0.0 1.0 0.0
									}
								}
							}
						}
					}
				}
			}
		}
	}
	JOINT LeftLeg
	{
		OFFSET 10.0432 -8.4345 2.5957
		CHANNELS 3 Zrotation Xrotation Yrotation
		JOINT LeftShin
		{
			OFFSET -0.0000 -43.2218 -0.8029
			CHANNELS 3 Zrotation Xrotation Yrotation
			JOINT LeftFoot
			{
				OFFSET 0.0000 -42.1551 -3.4815
				CHANNELS 3 Zrotation Xrotation Yrotation
				JOINT LeftToeBase
				{
					OFFSET 0.0000 -5.0595 13.2315
					CHANNELS 3 Zrotation Xrotation Yrotation
					End Site
					{
						OFFSET 0.0 1.0 0.0
					}
				}
			}
		}
	}
	JOINT RightLeg
	{
		OFFSET -10.0473 -8.2953 2.6203
		CHANNELS 3 Zrotation Xrotation Yrotation
		JOINT RightShin
		{
			OFFSET 0.0000 -43.3622 -0.8056
			CHANNELS 3 Zrotation Xrotation Yrotation
			JOINT RightFoot
			{
				OFFSET 0.0000 -42.1174 -3.4784
				CHANNELS 3 Zrotation Xrotation Yrotation
				JOINT RightToeBase
				{
					OFFSET -0.0000 -5.0796 13.2842
					CHANNELS 3 Zrotation Xrotation Yrotation
					End Site
					{
						OFFSET 0.0 1.0 0.0
					}
				}
			}
		}
	}
}
MOTION
Frames: 16
Frame Time: 0.033333
-3.7276 97.9302 4.4443 0.5695 5.3456 -0.3496 2.9851 3.1355 -0.0753 0.8438 -3.8968 -1.6141 5.8902 14.2935 -1.6461 -4.8748 15.1641 4.3239 -0.4317 -3.6542 3.2326 -9.5408 -11.5262 7.3235 0.0180 -0.0289 0.0014 0.7969 -10.3486 -3.8083 -0.7677 -10.3634 3.8247 -1.0817 17.0894 -12.0739 -54.1389 3.7911 -45.9986 0.7239 0.6521 -82.4521 2.3012 4.7139 34.4016 -16.0691 10.6002 15.5068 -60.2235 1.3129 2.3171 3.6578 12.6363 12.7701 57.3978 -7.5595 34.1030 -0.5655 -0.3987 113.0392 32.9145 10.9387 -18.0869 15.1780 7.2249 -15.6269 51.0118 -2.9567 -5.1626 7.0418 -18.4796 4.4471 -0.0439 21.2439 -0.2069 -8.9290 -8.8298 -3.6763 1.6291 -0.4553 -1.8818 -5.4756 -14.7261 -4.8620 0.1161 23.4977 0.3544 6.6977 -13.4916 -7.1840 -1.4127 -0.0784 1.1799
-3.4522 97.9530 4.8302 0.6696 5.4906 -0.2108 2.8880 3.2160 -0.1063 0.8455 -3.9182 -1.5797 5.7704 14.3336 -1.6851 -4.7221 15.2098 4.2661 -0.4987 -3.6796 3.1835 -9.5375 -11.5759 7.1159 0.0020 -0.0338 0.0303 0.7746 -10.3496 -3.7738 -0.7777 -10.3610 3.8540 -1.0087 17.1516 -12.2037 -53.9224 3.5315 -45.8611 0.5088 0.5068 -82.4044 2.7055 4.2598 34.0166 -15.9511 10.5966 15.5554 -60.1063 1.2533 2.2913 3.6762 12.7975 12.6103 57.1823 -7.5741 33.8632 -0.4721 -0.3773 112.9599 32.4775 10.3401 -18.0119 15.0888 7.2345 -15.6008 50.8662 -2.9593 -5.1002 6.7922 -18.5369 4.3847 -0.0648 21.3472 -0.2242 -8.8649 -9.0315 -3.6547 1.6289 -0.4288 -1.8807 -5.7383 -14.7381 -4.9187 0.1155 23.4934 0.3547 6.9922 -13.3841 -7.3459 -1.4191 -0.0372 1.1588
-3.1492 97.9603 5.1159 0.8009 5.6754 -0.0091 2.7673 3.3201 -0.1675 0.8295 -3.8929 -1.5172 5.6347 14.4011 -1.7153 -4.5429 15.1848 4.1576 -0.5759 -3.7258 3.1065 -9.5935 -11.7371 7.0034 -0.0027 -0.0345 0.0367 0.7607 -10.3689 -3.7663 -0.7731 -10.3730 3.8581 -0.9867 17.2523 -12.3274 -53.7286 3.2351 -45.4972 0.4281 0.4283 -82.4486 3.0502 4.0333 33.7449 -15.9167 10.6182 15.6210 -60.0508 1.2445 2.3118 3.5427 12.8791 12.5090 57.0313 -7.5968 33.6700 -0.3119 -0.3394 112.9673 32.0772 9.9439 -17.9622 15.0070 7.2035 -15.5555 50.6996 -2.9454 -5.0587 6.4864 -18.6625 4.2345 -0.0647 21.4899 -0.2355 -8.6856 -9.2231 -3.5859 1.6336 -0.4064 -1.8664 -6.0312 -14.8378 -5.1063 0.1217 23.5556 0.3822 7.2955 -13.2892 -7.4923 -1.4203 0.0124 1.1388
-2.8475 97.9793 5.3353 0.8876 5.9114 0.1195 2.6625 3.4792 -0.1780 0.8246 -3.8765 -1.5037 5.4790 14.4947 -1.6849 -4.4022 15.0853 4.0556 -0.6364 -3.7465 3.0292 -9.6849 -12.1347 6.9865 0.0027 -0.0363 0.0249 0.7577 -10.3873 -3.7777 -0.7590 -10.3876 3.8435 -1.0285 17.3657 -12.4122 -53.5973 2.8208 -44.8633 0.3343 0.3281 -82.4796 3.5029 4.2047 33.5162 -15.8729 10.6241 15.6803 -60.0234 1.2396 2.3491 3.3240 12.9907 12.5247 56.7914 -7.5721 33.6356 -0.1958 -0.3283 113.0936 31.6865 9.8377 -17.7707 14.9737 7.1929 -15.5222 50.6020 -2.9322 -5.0361 6.1954 -18.8594 4.1196 -0.0604 21.6591 -0.2527 -8.4896 -9.3946 -3.4289 1.6366 -0.4402 -1.8572 -6.2900 -14.9998 -5.2671 0.1228 23.5553 0.3929 7.5473 -13.1616 -7.5072 -1.4211 0.0014 1.1230
-2.5267 98.0042 5.4709 0.9455 6.2273 0.2142 2.5793 3.6782 -0.1875 0.8185 -3.8103 -1.4520 5.2982 14.5921 -1.6555 -4.2769 14.8488 3.9629 -0.6782 -3.7591 2.9778 -9.7971 -12.7478 7.0550 0.0082 -0.0345 0.0168 0.7560 -10.3961 -3.7864 -0.7457 -10.3951 3.8331 -1.1042 17.5016 -12.4584 -53.4558 2.3577 -44.0789 0.2611 0.2733 -82.5276 4.0267 4.5013 33.3394 -15.8109 10.6620 15.7152 -59.9635 1.2549 2.3828 2.9908 13.0981 12.6008 56.4922 -7.5338 33.8296 -0.1305 -0.2986 113.3839 31.2911 9.8451 -17.4682 14.9295 7.1873 -15.5198 50.5090 -2.9569 -5.0204 5.9020 -19.1834 3.9969 -0.0504 21.8715 -0.2572 -8.3170 -9.5469 -3.2601 1.6392 -0.4644 -1.8522 -6.5251 -15.2340 -5.3943 0.1201 23.4913 0.4156 7.8147 -13.0027 -7.5234 -1.4227 -0.0094 1.1089
-2.1869 98.0084 5.5493 0.9813 6.6037 0.2979 2.4912 3.9432 -0.1722 0.8234 -3.7234 -1.4368 5.0880 14.7220 -1.5998 -4.1826 14.4941 3.9095 -0.7039 -3.7680 2.9320 -9.8972 -13.5222 7.1401 0.0147 -0.0304 0.0072 0.7550 -10.4016 -3.7944 -0.7314 -10.3996 3.8192 -1.1722 17.6693 -12.4728 -53.2636 1.9088 -43.2259 0.2244 0.2569 -82.6793 4.5179 4.7967 33.2674 -15.7581 10.7056 15.7444 -59.9348 1.3006 2.4142 2.6288 13.2286 12.7770 56.1298 -7.5788 34.0101 0.0152 -0.2632 113.8762 30.8338 9.7637 -17.0190 14.9034 7.1722 -15.5015 50.4546 -2.9764 -5.0173 5.6120 -19.7047 3.8356 -0.0443 22.2881 -0.2589 -8.1257 -9.7802 -3.0487 1.6426 -0.4158 -1.8461 -6.7391 -15.6097 -5.4353 0.1168 23.5333 0.4309 8.1095 -12.8803 -7.5300 -1.4245 -0.0142 1.1057
-1.8170 97.9703 5.5925 0.9981 7.0164 0.4037 2.3840 4.2648 -0.1386 0.8177 -3.6001 -1.4061 4.8833 14.8564 -1.5448 -4.1227 14.0619 3.8948 -0.7319 -3.7932 2.8786 -10.0052 -14.4101 7.2533 0.0204 -0.0306 0.0007 0.7556 -10.4092 -3.8009 -0.7206 -10.4072 3.8120 -1.2495 17.8260 -12.4692 -53.0444 1.5456 -42.3901 0.2237 0.3117 -82.9327 4.8526 4.9862 33.2302 -15.7285 10.7399 15.7459 -59.8994 1.3677 2.3671 2.2991 13.3947 13.0262 55.7266 -7.6133 34.0916 0.1423 -0.1798 114.4879 30.3647 9.6975 -16.3629 14.8460 7.1521 -15.4887 50.3878 -2.9992 -5.0448 5.3332 -20.3968 3.6044 -0.0503 22.9172 -0.2601 -7.9237 -10.0539 -2.7565 1.6541 -0.3783 -1.8468 -6.9678 -16.0813 -5.4180 0.1198 23.6880 0.4341 8.4175 -12.8524 -7.5558 -1.4282 -0.0305 1.1050
-1.4263 97.8790 5.5860 1.0095 7.4683 0.6050 2.2335 4.6221 -0.1234 0.7912 -3.4677 -1.3673 4.6763 15.0563 -1.4615 -4.0455 13.6115 3.8828 -0.7469 -3.8097 2.7735 -10.1344 -15.4226 7.3471 0.0276 -0.0211 -0.0224 0.7645 -10.4262 -3.8260 -0.7151 -10.4193 3.7871 -1.2850 17.9696 -12.4978 -52.8081 1.1454 -41.3721 0.1306 0.3164 -83.4198 5.1636 5.0097 33.1224 -15.7431 10.7465 15.7719 -59.9329 1.3952 2.3365 2.0331 13.5629 13.2739 55.2905 -7.6525 33.9630 0.2371 -0.0950 115.1608 29.9319 9.6347 -15.6157 14.8446 7.1799 -15.5171 50.4206 -2.9650 -5.1020 5.0544 -21.2710 3.2980 -0.0427 23.7525 -0.2591 -7.7193 -10.4628 -2.4699 1.6588 -0.2955 -1.8420 -7.1894 -16.6703 -5.5024 0.1188 24.0005 0.4316 8.7130 -13.0156 -7.5799 -1.4298 0.0035 1.0924
-1.0182 97.7337 5.6111 1.0871 7.9721 0.9321 1.9894 4.9449 -0.1134 0.7264 -3.3282 -1.2746 4.4707 15.2939 -1.4219 -3.9525 13.2584 3.8530 -0.7701 -3.8227 2.6692 -10.2002 -16.4730 7.3285 0.0319 -0.0063 -0.0435 0.7733 -10.4335 -3.8488 -0.7156 -10.4186 3.7667 -1.3554 18.0737 -12.5595 -52.5957 0.7923 -40.2696 0.0745 0.3104 -84.0594 5.5205 4.7779 33.0199 -15.7631 10.7536 15.8077 -60.0014 1.4174 2.2732 1.8924 13.7218 13.5206 54.8193 -7.5621 33.7218 0.1686 -0.1060 115.6901 29.5830 9.8956 -14.7714 14.8699 7.2295 -15.5686 50.5233 -2.9691 -5.1505 4.6882 -22.2134 3.0044 -0.0300 24.5678 -0.2440 -7.5009 -10.9580 -2.2799 1.6550 -0.1504 -1.8482 -7.4945 -17.3465 -5.6657 0.1216 24.4112 0.4547 9.0519 -13.3053 -7.6821 -1.4292 0.0477 1.0822
-0.5864 97.6084 5.7337 1.2648 8.5476 1.3368 1.6531 5.1863 -0.0998 0.6463 -3.2114 -1.1868 4.2355 15.5676 -1.3930 -3.9248 13.0508 3.8189 -0.8301 -3.8220 2.5978 -10.1657 -17.3344 7.2030 0.0334 -0.0004 -0.0606 0.7755 -10.4333 -3.8645 -0.7154 -10.4154 3.7487 -1.4402 18.1379 -12.5629 -52.4826 0.3717 -39.1162 -0.0031 0.2509 -84.6563 6.1550 4.3770 33.0401 -15.8331 10.7433 15.8309 -60.0876 1.4395 2.1697 1.8874 13.8805 13.7901 54.4211 -7.4856 33.4284 -0.0098 -0.2110 115.9822 29.4366 10.6172 -13.8153 14.8912 7.3072 -15.5974 50.6513 -2.9837 -5.1970 4.1806 -23.0962 2.8407 -0.0159 25.1141 -0.2245 -7.2626 -11.4079 -2.3171 1.6484 -0.0399 -1.8716 -7.9191 -18.0590 -5.8879 0.1330 24.7415 0.4948 9.4566 -13.5739 -7.7697 -1.4239 0.0767 1.0786
-0.0704 97.5623 5.9292 1.4802 9.2333 1.8113 1.2772 5.3768 -0.1147 0.5530 -3.1106 -1.0459 3.9571 15.7716 -1.3410 -3.9289 12.9324 3.7728 -0.9201 -3.8116 2.5208 -10.0260 -17.9917 7.0139 0.0351 -0.0016 -0.0721 0.7694 -10.4328 -3.8716 -0.7065 -10.4119 3.7332 -1.3726 18.1452 -12.4852 -52.5616 -0.0199 -38.0197 -0.1286 0.1918 -85.1173 6.9417 3.9327 33.1740 -15.9207 10.7618 15.9046 -60.2261 1.4483 2.0997 1.8963 14.0222 13.9918 54.3374 -7.5614 33.1544 -0.1170 -0.3602 116.1915 29.5006 11.5819 -12.9399 14.9542 7.3440 -15.5968 50.7638 -3.0406 -5.2237 3.6085 -23.8649 2.6757 -0.0072 25.2784 -0.2237 -7.0041 -11.6549 -2.4344 1.6397 0.0668 -1.9044 -8.3683 -18.6610 -6.1625 0.1459 24.6787 0.5506 9.8758 -13.6398 -7.9046 -1.4165 0.1067 1.0833
0.4529 97.6160 6.1527 1.6516 10.0568 2.2872 0.9265 5.5387 -0.1218 0.4590 -3.0408 -0.8697 3.6636 15.8219 -1.2687 -3.9928 12.7768 3.7676 -0.9619 -3.7806 2.4098 -9.8196 -18.4717 6.8322 0.0368 -0.0044 -0.0725 0.7629 -10.4235 -3.8667 -0.6967 -10.4028 3.7275 -1.0835 18.0727 -12.2876 -52.7384 -0.0150 -37.3613 -0.1442 0.2045 -85.3874 7.1680 3.7841 33.5853 -15.9658 10.7489 15.9306 -60.3718 1.4218 2.0905 1.8374 14.0961 14.1553 54.5576 -7.5716 33.0702 -0.1742 -0.4721 116.4995 29.8005 12.7174 -12.2865 15.0042 7.3554 -15.5751 50.8095 -3.0907 -5.1597 3.0990 -24.5675 2.3941 -0.0181 25.0986 -0.2421 -6.7503 -11.6451 -2.4591 1.6339 0.1458 -1.9247 -8.7387 -19.0861 -6.3608 0.1580 24.0914 0.5903 10.2881 -13.4516 -8.1526 -1.4112 0.1252 1.0854
0.9757 97.7562 6.4307 1.6919 11.0447 2.7139 0.6317 5.6862 -0.1234 0.3673 -2.9801 -0.6734 3.3902 15.6568 -1.1477 -4.0769 12.4698 3.8344 -0.9658 -3.7491 2.3048 -9.5317 -18.8582 6.6999 0.0372 -0.0056 -0.0685 0.7613 -10.4222 -3.8625 -0.6940 -10.4022 3.7309 -0.6253 17.8917 -11.9994 -52.9564 0.4943 -37.0593 -0.0193 0.2308 -85.5296 6.6429 4.0840 34.4331 -16.0004 10.6840 15.8626 -60.4544 1.3479 2.1170 1.6685 14.0652 14.3264 55.0588 -7.5228 33.0492 -0.1171 -0.5136 116.9602 30.2880 14.2450 -11.8414 15.0262 7.3364 -15.5774 50.7765 -3.1503 -5.0601 2.7726 -25.2741 2.0024 -0.0364 24.6558 -0.2836 -6.5264 -11.4852 -2.3867 1.6285 0.1967 -1.9282 -8.9029 -19.3567 -6.5354 0.1542 22.9701 0.5943 10.6232 -13.0192 -8.4845 -1.4089 0.0943 1.0621
1.4130 97.9319 6.7713 1.5788 12.1766 3.0848 0.3462 5.7919 -0.1125 0.2780 -2.9178 -0.4896 3.1393 15.3262 -0.9671 -4.1007 11.9451 3.9223 -0.9461 -3.7242 2.2644 -9.1220 -19.2072 6.5347 0.0364 -0.0066 -0.0637 0.7604 -10.4227 -3.8606 -0.6941 -10.4008 3.7390 -0.1276 17.7213 -11.6904 -53.1917 1.3440 -36.6834 0.1641 0.2894 -85.5994 5.6204 4.6707 35.6141 -16.0206 10.5962 15.7296 -60.4803 1.2860 2.1371 1.4578 13.9559 14.5288 55.7354 -7.5162 32.9067 0.0876 -0.4711 117.5815 30.7634 15.9883 -11.6184 15.0286 7.2796 -15.5827 50.6735 -3.1916 -5.0243 2.6709 -26.0484 1.5533 -0.0568 24.0938 -0.3315 -6.3247 -11.2449 -2.3686 1.6267 0.2390 -1.9249 -8.8455 -19.5227 -6.6942 0.1344 21.4706 0.5784 10.8415 -12.4097 -8.9063 -1.4087 -0.0103 1.0313
1.8025 98.1097 7.2192 1.3473 13.3341 3.4893 0.0466 5.8860 -0.0997 0.1980 -2.8615 -0.3644 2.8574 14.9336 -0.7566 -4.0023 11.3107 4.0031 -0.9001 -3.6863 2.2738 -8.6386 -19.5607 6.3240 0.0350 -0.0048 -0.0584 0.7610 -10.4243 -3.8567 -0.6966 -10.4018 3.7465 0.3522 17.6148 -11.3727 -53.4096 2.3348 -35.8358 0.2720 0.3676 -85.8061 4.4610 5.3854 36.8705 -16.0218 10.5141 15.6035 -60.5004 1.2428 2.1875 1.2271 13.8134 14.7069 56.4321 -7.6856 32.4718 0.4149 -0.4032 118.4201 30.9295 17.1603 -11.7722 15.0066 7.1932 -15.6064 50.5675 -3.2258 -5.0832 2.7641 -26.9265 1.1275 -0.0756 23.7320 -0.3708 -6.1626 -11.0883 -2.5826 1.6282 0.3109 -1.9063 -8.5792 -19.6574 -6.9629 0.0979 19.9767 0.5389 11.0161 -11.7779 -9.3231 -1.4091 -0.1027 1.0140
2.1466 98.1899 7.7483 0.9752 14.3560 3.8886 -0.2174 6.0151 -0.0865 0.1100 -2.8068 -0.2409 2.5385 14.5917 -0.5673 -3.7700 10.7264 4.0495 -0.8780 -3.6661 2.2731 -8.0633 -19.9370 6.0192 0.0340 -0.0010 -0.0540 0.7638 -10.4211 -3.8520 -0.7006 -10.3999 3.7504 0.6928 17.5835 -11.0601 -53.4961 3.2873 -34.3630 0.1766 0.5433 -86.2051 3.2656 5.7013 37.8502 -16.0650 10.4528 15.4718 -60.5621 1.1968 2.1583 0.9838 13.6929 14.8252 56.9902 -8.0503 31.7821 0.6915 -0.2578 119.5060 30.7760 17.1047 -12.2065 15.0141 7.0885 -15.6409 50.4539 -3.2943 -5.1426 3.0731 -27.8420 0.7772 -0.0982 23.8272 -0.4106 -6.0677 -11.2165 -2.9914 1.6339 0.4158 -1.8893 -8.1438 -19.6837 -7.2886 0.0665 18.7319 0.4871 11.2528 -11.2818 -9.6700 -1.4106 -0.1460 1.0058
